# xmcd CD database file
#
# Track frame offsets:
#	150
#	14627
#	29592
#	51135
#	64885
#	91815
#	103302
#	114452
#	132897
#	164070
#	179212
#	194357
#	213452
#	231085
#	243425
#	264102
#	291292
#	313332
#
# Disc length: 4413 seconds
#
# Revision: 1
# Processed by: cddbd v1.5.1PL0 Copyright (c) Steve Scherf et al.
# Submitted via: CDex 1.51
#
DISCID=18113b12
DTITLE=Various Artist - CBC's After Hours Volume 4
DYEAR=2000
DGENRE=Jazz
TTITLE0=Billie Holiday - Strange Fruit
TTITLE1=Nat King Cole - The Frim Fram Sauce
TTITLE2=Ella Fitzgeral - Mack and The Knife
TTITLE3=Johnny Hartman-Little Blue Girl
TTITLE4=Cassandra Wilson-Righ Here Right Now
TTITLE5=Louis Armstrong-Gone Fishin
TTITLE6=Peggy Lee-Why Don't You Do Right
TTITLE7=Nancy Wilson-But Beautiful
TTITLE8=Dr John-Mood Indigo
TTITLE9=Chet Baker-I Fall In Love Too Easily
TTITLE10=Count Basie-Jumpin At The Savoy
TTITLE11=Patricia Barber-She's A Lady
TTITLE12=Marc Jordan-Charlie Parker Loves Me
TTITLE13=Sheila Jordan-Dat Dere
TTITLE14=Betty Carter-Girl Talk
TTITLE15=Mahatten Transfer-Birdland
TTITLE16=Sarah Vaughn-You Go To My Head
TTITLE17=Holly Cole-Downtown
EXTD=YEAR: 2000
EXTT0=
EXTT1=
EXTT2=
EXTT3=
EXTT4=
EXTT5=
EXTT6=
EXTT7=
EXTT8=
EXTT9=
EXTT10=
EXTT11=
EXTT12=
EXTT13=
EXTT14=
EXTT15=
EXTT16=
EXTT17=
PLAYORDER=
